<svg xmlns="http://www.w3.org/2000/svg" width="1200" height="720" viewBox="0 0 1200 720">
<rect width="1200" height="720" fill="#fbfaf7"/>
<rect x="24" y="24" width="1152" height="672" rx="24" fill="#ffffff" stroke="#ece4d8"/>
<text x="88" y="54" font-size="28" font-family="PingFang SC, Microsoft YaHei, sans-serif" fill="#2f2a24" font-weight="700">粤电力Ａ(000539.SZ)近30天主筹码峰占比趋势</text>
<text x="88" y="82" font-size="14" font-family="PingFang SC, Microsoft YaHei, sans-serif" fill="#7a7268">口径：每个交易日 cyq_chips 中 percent 最大值；区间 2026-03-04 至 2026-04-01，共 21 个交易日</text>
<rect x="88" y="90" width="1072" height="540" rx="16" fill="#dff3ea" opacity="0.35"/>
<line x1="88" y1="630.00" x2="1160" y2="630.00" stroke="#d9d2c3" stroke-dasharray="4 6"/>
<text x="76" y="635.00" text-anchor="end" font-size="12" font-family="PingFang SC, Microsoft YaHei, sans-serif" fill="#6b6258">0%</text>
<line x1="88" y1="540.00" x2="1160" y2="540.00" stroke="#d9d2c3" stroke-dasharray="4 6"/>
<text x="76" y="545.00" text-anchor="end" font-size="12" font-family="PingFang SC, Microsoft YaHei, sans-serif" fill="#6b6258">4%</text>
<line x1="88" y1="450.00" x2="1160" y2="450.00" stroke="#d9d2c3" stroke-dasharray="4 6"/>
<text x="76" y="455.00" text-anchor="end" font-size="12" font-family="PingFang SC, Microsoft YaHei, sans-serif" fill="#6b6258">8%</text>
<line x1="88" y1="360.00" x2="1160" y2="360.00" stroke="#d9d2c3" stroke-dasharray="4 6"/>
<text x="76" y="365.00" text-anchor="end" font-size="12" font-family="PingFang SC, Microsoft YaHei, sans-serif" fill="#6b6258">12%</text>
<line x1="88" y1="270.00" x2="1160" y2="270.00" stroke="#d9d2c3" stroke-dasharray="4 6"/>
<text x="76" y="275.00" text-anchor="end" font-size="12" font-family="PingFang SC, Microsoft YaHei, sans-serif" fill="#6b6258">16%</text>
<line x1="88" y1="180.00" x2="1160" y2="180.00" stroke="#d9d2c3" stroke-dasharray="4 6"/>
<text x="76" y="185.00" text-anchor="end" font-size="12" font-family="PingFang SC, Microsoft YaHei, sans-serif" fill="#6b6258">20%</text>
<line x1="88" y1="90.00" x2="1160" y2="90.00" stroke="#d9d2c3" stroke-dasharray="4 6"/>
<text x="76" y="95.00" text-anchor="end" font-size="12" font-family="PingFang SC, Microsoft YaHei, sans-serif" fill="#6b6258">24%</text>
<line x1="88" y1="630" x2="1160" y2="630" stroke="#6b6258" stroke-width="1.5"/>
<line x1="88" y1="90" x2="88" y2="630" stroke="#6b6258" stroke-width="1.5"/>
<line x1="88.00" y1="630" x2="88.00" y2="636" stroke="#6b6258"/>
<text x="88.00" y="656" text-anchor="middle" font-size="12" font-family="PingFang SC, Microsoft YaHei, sans-serif" fill="#6b6258">03-04</text>
<line x1="248.80" y1="630" x2="248.80" y2="636" stroke="#6b6258"/>
<text x="248.80" y="656" text-anchor="middle" font-size="12" font-family="PingFang SC, Microsoft YaHei, sans-serif" fill="#6b6258">03-09</text>
<line x1="409.60" y1="630" x2="409.60" y2="636" stroke="#6b6258"/>
<text x="409.60" y="656" text-anchor="middle" font-size="12" font-family="PingFang SC, Microsoft YaHei, sans-serif" fill="#6b6258">03-12</text>
<line x1="570.40" y1="630" x2="570.40" y2="636" stroke="#6b6258"/>
<text x="570.40" y="656" text-anchor="middle" font-size="12" font-family="PingFang SC, Microsoft YaHei, sans-serif" fill="#6b6258">03-17</text>
<line x1="731.20" y1="630" x2="731.20" y2="636" stroke="#6b6258"/>
<text x="731.20" y="656" text-anchor="middle" font-size="12" font-family="PingFang SC, Microsoft YaHei, sans-serif" fill="#6b6258">03-20</text>
<line x1="892.00" y1="630" x2="892.00" y2="636" stroke="#6b6258"/>
<text x="892.00" y="656" text-anchor="middle" font-size="12" font-family="PingFang SC, Microsoft YaHei, sans-serif" fill="#6b6258">03-25</text>
<line x1="1052.80" y1="630" x2="1052.80" y2="636" stroke="#6b6258"/>
<text x="1052.80" y="656" text-anchor="middle" font-size="12" font-family="PingFang SC, Microsoft YaHei, sans-serif" fill="#6b6258">03-30</text>
<line x1="1160.00" y1="630" x2="1160.00" y2="636" stroke="#6b6258"/>
<text x="1160.00" y="656" text-anchor="middle" font-size="12" font-family="PingFang SC, Microsoft YaHei, sans-serif" fill="#6b6258">04-01</text>
<polyline fill="none" stroke="#0b6e4f" stroke-width="3.5" stroke-linecap="round" stroke-linejoin="round" points="88.00,175.95 141.60,188.55 195.20,202.05 248.80,217.35 302.40,230.62 356.00,245.03 409.60,265.72 463.20,287.32 516.80,301.27 570.40,311.85 624.00,318.60 677.60,353.02 731.20,428.62 784.80,415.58 838.40,397.12 892.00,439.42 945.60,496.35 999.20,451.35 1052.80,450.00 1106.40,449.10 1160.00,468.23"/>
<circle cx="1160.00" cy="468.23" r="6.5" fill="#157a5b" stroke="#ffffff" stroke-width="2"/>
<text x="1150.00" y="454.23" text-anchor="end" font-size="12" font-family="PingFang SC, Microsoft YaHei, sans-serif" fill="#0b6e4f">7.19%</text>
<text x="600.00" y="696" text-anchor="middle" font-size="14" font-family="PingFang SC, Microsoft YaHei, sans-serif" fill="#2f2a24">日期</text>
<text x="26" y="360.00" text-anchor="middle" font-size="14" font-family="PingFang SC, Microsoft YaHei, sans-serif" fill="#2f2a24" transform="rotate(-90 26 360.00)">筹码分布占比</text>
</svg>